<?xml version="1.0" standalone="no"?>
<!DOCTYPE svg PUBLIC "-//W3C//DTD SVG 20010904//EN"
 "http://www.w3.org/TR/2001/REC-SVG-20010904/DTD/svg10.dtd">
<svg version="1.0" xmlns="http://www.w3.org/2000/svg"
 width="380.000000pt" height="383.000000pt" viewBox="0 0 380.000000 383.000000"
 preserveAspectRatio="xMidYMid meet">
<metadata>
Created by potrace 1.15, written by Peter Selinger 2001-2017
</metadata>
<g transform="translate(0.000000,383.000000) scale(0.100000,-0.100000)"
fill="#000000" stroke="none">
<path d="M1728 3749 c-526 -51 -1011 -331 -1324 -765 -83 -115 -200 -349 -247
-491 -119 -367 -119 -779 0 -1146 47 -142 164 -376 247 -491 323 -449 804
-719 1365 -767 476 -42 992 134 1353 460 239 216 429 501 522 786 231 706 30
1457 -522 1956 -232 209 -539 364 -847 427 -185 38 -367 48 -547 31z m527 -79
c586 -126 1061 -515 1292 -1060 185 -435 185 -945 0 -1380 -232 -547 -705
-934 -1297 -1062 -92 -19 -134 -22 -340 -23 -206 0 -249 3 -348 23 -731 148
-1279 706 -1419 1445 -25 130 -25 484 0 614 54 286 166 541 335 765 265 352
658 599 1079 677 160 30 151 29 383 26 174 -2 234 -7 315 -25z"/>
<path d="M1914 3058 c-213 -250 -193 -231 -238 -225 -40 6 -43 4 -114 -66 -81
-80 -80 -81 -109 11 -9 28 -22 52 -28 52 -6 0 -40 -29 -75 -65 -35 -36 -71
-65 -80 -65 -8 0 -38 -10 -66 -21 -43 -18 -55 -29 -74 -68 l-22 -46 -26 30
c-15 17 -34 41 -43 55 l-16 24 -32 -31 c-18 -18 -45 -40 -61 -50 -35 -20 -39
-40 -8 -45 19 -3 17 -9 -30 -70 -29 -37 -52 -71 -52 -76 0 -5 11 -15 25 -22
27 -14 31 -25 14 -35 -14 -9 -34 19 -58 80 -19 49 -19 50 1 57 18 8 18 9 -6
41 -14 19 -26 39 -26 45 0 21 -14 13 -60 -34 -28 -29 -40 -48 -32 -51 19 -7
14 -25 -23 -80 l-35 -52 21 -20 20 -19 -30 -61 c-40 -78 -40 -85 5 -76 41 7
41 5 -14 -63 -19 -23 -33 -44 -31 -47 13 -12 524 -15 1464 -8 l1050 8 -115
120 c-72 76 -135 131 -169 150 l-53 30 -71 158 -71 158 -53 -7 -52 -6 -55 116
c-30 64 -60 116 -66 116 -6 0 -47 -29 -93 -65 -45 -35 -85 -61 -88 -57 -4 4
-53 86 -109 182 -56 96 -108 181 -115 188 -10 11 -28 -5 -101 -90z m17 -103
c-46 -125 -47 -130 -28 -133 29 -5 46 -31 47 -67 0 -19 7 -35 20 -43 17 -10
19 -19 13 -57 -4 -32 -2 -45 7 -45 9 0 11 -22 6 -92 l-7 -93 73 149 c71 145
74 149 88 127 l16 -23 41 33 c72 60 203 159 208 159 13 0 4 -113 -11 -136 -16
-24 -16 -38 2 -121 6 -32 5 -33 -34 -39 l-40 -6 -81 -169 c-97 -200 -73 -182
-340 -263 l-183 -56 -255 0 -255 0 -72 70 -71 71 63 -7 c34 -4 62 -4 62 -2 0
3 -17 23 -37 44 -76 80 -76 80 13 186 43 51 79 95 81 97 1 2 24 -2 50 -9 l47
-14 143 148 143 148 43 -6 42 -6 125 148 c69 82 126 146 127 143 2 -3 -19 -64
-46 -136z m-521 -197 c-4 -18 -21 -56 -38 -84 -18 -28 -32 -58 -32 -66 0 -25
-37 -51 -64 -46 -22 4 -35 -6 -87 -70 l-62 -74 -18 23 c-10 13 -19 27 -19 32
0 4 18 43 40 87 36 71 44 81 86 99 26 12 53 21 62 21 8 0 41 25 73 55 32 30
60 55 62 55 3 0 2 -15 -3 -32z"/>
<path d="M1555 1950 c-45 -10 -67 -24 -114 -75 -80 -86 -163 -300 -224 -574
-14 -62 -28 -116 -31 -119 -12 -12 -5 430 9 553 11 101 11 131 2 137 -23 15
-44 8 -57 -19 -40 -87 -106 -324 -154 -556 -29 -139 -34 -122 -39 143 -5 207
-16 261 -70 332 -18 23 -54 53 -82 67 -68 35 -205 37 -277 4 -71 -33 -124 -94
-148 -170 -24 -79 -25 -113 -4 -184 47 -158 260 -202 371 -76 40 45 61 106 42
118 -29 18 -56 10 -62 -18 -15 -77 -91 -138 -161 -129 -86 10 -131 75 -131
187 0 148 83 248 215 257 106 8 180 -49 217 -165 10 -33 18 -120 23 -278 5
-126 12 -243 17 -259 6 -20 18 -32 37 -37 32 -9 27 -20 61 136 37 172 113 464
126 483 7 13 9 0 4 -48 -25 -283 -28 -454 -9 -552 5 -25 10 -28 42 -28 l37 0
24 108 c72 335 169 583 257 661 41 35 53 41 93 41 26 0 56 -6 66 -14 17 -12
21 -11 38 11 18 22 18 26 4 40 -19 19 -83 31 -122 23z"/>
<path d="M2670 1848 c-32 -53 -58 -144 -84 -294 -28 -166 -67 -257 -97 -227
-6 6 -1 35 12 77 23 76 20 103 -16 150 -21 27 -23 37 -15 71 16 67 13 84 -15
91 -14 4 -29 3 -33 -1 -4 -4 -7 -52 -8 -108 0 -89 -4 -110 -28 -162 -34 -76
-71 -115 -108 -115 -32 0 -48 24 -48 69 0 23 5 31 18 31 49 0 112 73 112 131
0 44 -15 59 -58 59 -51 0 -94 -50 -126 -148 -40 -121 -76 -159 -76 -82 0 22
18 130 40 239 49 241 49 241 12 241 l-29 0 -22 -127 c-29 -164 -26 -158 -51
-133 -11 11 -27 20 -36 20 -26 0 -71 -56 -93 -116 -43 -113 -90 -193 -113
-194 -15 0 -8 73 13 144 26 86 29 143 9 156 -25 16 -47 11 -79 -16 -30 -25
-31 -25 -31 -5 0 17 -6 21 -30 21 -26 0 -30 -4 -36 -37 -27 -160 -48 -219 -89
-253 -13 -10 -15 -9 -15 12 0 28 37 238 46 262 5 12 0 16 -19 16 -18 0 -28 -7
-33 -22 l-7 -23 -8 23 c-12 32 -63 30 -94 -4 -70 -76 -100 -294 -45 -324 27
-14 68 6 87 44 l16 30 11 -34 c14 -43 40 -49 73 -18 l26 23 -6 -22 c-4 -20 -1
-23 27 -23 l33 0 20 105 c22 110 53 189 80 199 32 13 31 -3 -12 -167 -13 -48
-16 -76 -9 -94 22 -63 80 -56 121 14 l27 47 8 -39 c16 -77 58 -88 107 -28 26
31 31 34 31 17 0 -11 6 -29 14 -39 12 -17 17 -18 40 -7 14 6 39 32 54 56 l28
44 12 -44 c10 -37 18 -48 47 -60 31 -12 39 -12 69 0 40 17 69 59 111 161 15
39 32 74 36 79 15 17 21 -44 10 -87 -27 -95 -29 -110 -20 -133 19 -51 104 -17
125 50 6 18 9 15 18 -19 23 -81 87 -77 137 10 l29 50 0 -35 c0 -74 59 -105 99
-53 12 14 22 24 24 22 1 -2 7 -13 13 -24 13 -24 45 -30 73 -16 21 12 76 117
85 161 2 14 9 36 14 50 11 27 10 28 37 -49 28 -82 12 -136 -34 -111 -21 11
-61 -1 -61 -19 0 -19 43 -45 74 -45 47 0 81 26 116 87 l30 52 0 -42 c0 -89 40
-121 88 -70 24 25 76 146 68 155 -8 7 -9 5 -45 -66 -41 -81 -56 -77 -55 15 0
98 22 183 46 183 11 0 18 7 18 20 0 11 -5 20 -11 20 -11 0 -8 58 8 148 5 32 4
33 -23 30 -30 -3 -31 -5 -54 -120 -9 -47 -15 -58 -31 -58 -12 0 -19 -7 -19
-20 0 -11 7 -20 16 -20 22 0 10 -78 -23 -150 l-25 -55 -17 55 c-10 30 -28 75
-41 99 -18 37 -21 55 -17 101 4 31 9 64 13 73 5 13 0 17 -19 17 -36 0 -42 -14
-42 -100 0 -121 -76 -319 -113 -296 -7 4 -12 19 -12 33 0 23 34 206 46 246 4
13 -1 17 -25 17 -34 0 -35 -4 -66 -150 -17 -82 -44 -146 -60 -143 -18 5 -15
67 8 181 l24 113 -31 -3 c-29 -3 -31 -6 -48 -80 -18 -80 -64 -184 -92 -207
-32 -27 -46 -6 -46 68 0 64 3 75 40 134 68 109 112 263 91 320 -8 21 -17 27
-41 27 -23 0 -35 -7 -50 -32z m-624 -343 c-11 -99 -56 -188 -85 -170 -30 18
13 211 53 237 23 15 38 -15 32 -67z m-531 45 c12 -38 -22 -166 -53 -202 -27
-31 -42 -22 -42 25 0 116 72 250 95 177z"/>
<path d="M563 1758 c-52 -11 -58 -29 -8 -21 l36 6 -47 -91 c-26 -51 -43 -96
-39 -103 5 -7 16 9 30 42 37 92 84 159 110 159 22 0 21 -3 -23 -90 -46 -89
-54 -131 -13 -68 l21 33 0 -28 c0 -24 3 -27 20 -22 11 4 20 2 20 -4 0 -6 6
-11 14 -11 18 0 66 38 66 52 0 7 -10 2 -23 -10 -23 -22 -47 -29 -47 -14 0 4
14 15 30 24 17 9 30 24 30 33 0 27 -38 16 -66 -20 -31 -41 -44 -40 -17 1 l18
28 -24 -7 c-22 -5 -21 -2 11 31 40 41 60 76 51 86 -9 9 -101 6 -150 -6z"/>
<path d="M1465 1239 c-92 -18 -143 -39 -175 -75 -16 -19 -30 -42 -30 -52 1
-10 7 -4 14 14 17 38 63 67 136 85 88 22 498 17 749 -10 334 -35 617 -46 799
-32 87 6 173 16 192 21 l35 10 -40 -5 c-198 -24 -483 -15 -964 30 -277 26
-614 32 -716 14z"/>
<path d="M1410 970 l0 -130 64 0 c34 0 77 5 95 11 76 27 92 176 24 228 -21 17
-40 21 -104 21 l-79 0 0 -130z m147 72 c19 -12 34 -63 28 -94 -8 -37 -40 -58
-87 -58 l-38 0 0 80 0 80 43 0 c23 0 47 -4 54 -8z"/>
<path d="M1690 970 l0 -130 95 0 c95 0 95 0 95 25 0 24 -2 25 -70 25 l-70 0 0
30 c0 30 1 30 55 30 52 0 55 1 55 25 0 24 -3 25 -56 25 -54 0 -55 0 -52 28 3
26 5 27 71 30 59 3 67 5 67 22 0 18 -7 20 -95 20 l-95 0 0 -130z"/>
<path d="M1940 970 l0 -130 25 0 c25 0 25 1 25 80 0 44 3 80 8 80 4 0 43 -36
87 -80 44 -44 83 -80 87 -80 5 0 8 59 8 130 l0 130 -25 0 c-25 0 -25 -1 -25
-82 l0 -83 -83 83 c-45 45 -88 82 -95 82 -9 0 -12 -34 -12 -130z"/>
<path d="M2340 970 l0 -130 25 0 c24 0 25 2 25 75 0 41 2 75 5 75 3 0 22 -19
42 -41 l38 -41 36 41 c20 22 39 41 43 41 3 0 6 -34 6 -75 0 -73 1 -75 25 -75
l25 0 0 130 c0 98 -3 130 -12 130 -7 -1 -35 -27 -63 -60 -27 -32 -54 -59 -60
-59 -5 0 -32 26 -60 59 -27 33 -56 60 -62 60 -10 0 -13 -33 -13 -130z"/>
<path d="M3014 1010 c-28 -11 -54 -48 -54 -77 0 -100 136 -129 171 -36 14 37
-6 90 -41 108 -32 17 -45 18 -76 5z"/>
</g>
</svg>
